HIERARCHY
ROOT Hips
{
	OFFSET 0.000000 0.000000 0.000000
	CHANNELS 6 Xposition Yposition Zposition Zrotation Xrotation Yrotation
	JOINT Spine
	{
		OFFSET 0.000000 -0.000000 2.308592
		CHANNELS 6 Xposition Yposition Zposition Zrotation Xrotation Yrotation
		JOINT Spine1
		{
			OFFSET 0.000000 -0.000001 6.299947
			CHANNELS 6 Xposition Yposition Zposition Zrotation Xrotation Yrotation
			JOINT Neck
			{
				OFFSET 0.000000 -0.000001 6.863018
				CHANNELS 6 Xposition Yposition Zposition Zrotation Xrotation Yrotation
				JOINT Head
				{
					OFFSET 0.000000 -0.563072 4.363802
					CHANNELS 6 Xposition Yposition Zposition Zrotation Xrotation Yrotation
					End Site
					{
						OFFSET 0.000000 -0.000001 5.630712
					}
				}
			}
			JOINT LeftShoulder
			{
				OFFSET 1.133878 0.148838 5.541535
				CHANNELS 6 Xposition Yposition Zposition Zrotation Xrotation Yrotation
				JOINT LeftArm
				{
					OFFSET 4.045994 0.000000 0.000000
					CHANNELS 6 Xposition Yposition Zposition Zrotation Xrotation Yrotation
					JOINT LeftForeArm
					{
						OFFSET 7.933552 0.000000 0.000000
						CHANNELS 6 Xposition Yposition Zposition Zrotation Xrotation Yrotation
						JOINT LeftHand
						{
							OFFSET 7.373209 0.000000 0.000000
							CHANNELS 6 Xposition Yposition Zposition Zrotation Xrotation Yrotation
							End Site
							{
								OFFSET 4.223034 0.000000 0.000000
							}
						}
					}
				}
			}
			JOINT RightShoulder
			{
				OFFSET -1.118234 0.148838 5.541535
				CHANNELS 6 Xposition Yposition Zposition Zrotation Xrotation Yrotation
				JOINT RightArm
				{
					OFFSET -4.045993 0.000000 0.000000
					CHANNELS 6 Xposition Yposition Zposition Zrotation Xrotation Yrotation
					JOINT RightForeArm
					{
						OFFSET -7.933553 0.000000 0.000000
						CHANNELS 6 Xposition Yposition Zposition Zrotation Xrotation Yrotation
						JOINT RightHand
						{
							OFFSET -7.373209 0.000000 0.000000
							CHANNELS 6 Xposition Yposition Zposition Zrotation Xrotation Yrotation
							End Site
							{
								OFFSET -4.223034 0.000000 0.000000
							}
						}
					}
				}
			}
		}
	}
	JOINT LeftUpLeg
	{
		OFFSET 2.815356 0.000000 0.000000
		CHANNELS 6 Xposition Yposition Zposition Zrotation Xrotation Yrotation
		JOINT LeftLeg
		{
			OFFSET 0.000000 0.000002 -11.840408
			CHANNELS 6 Xposition Yposition Zposition Zrotation Xrotation Yrotation
			JOINT LeftFoot
			{
				OFFSET 0.000000 0.000002 -12.413343
				CHANNELS 6 Xposition Yposition Zposition Zrotation Xrotation Yrotation
				JOINT LeftToeBase
				{
					OFFSET 0.000000 -4.223034 -1.829982
					CHANNELS 6 Xposition Yposition Zposition Zrotation Xrotation Yrotation
					End Site
					{
						OFFSET 0.000000 -1.126143 0.000000
					}
				}
			}
		}
	}
	JOINT RightUpLeg
	{
		OFFSET -2.815356 0.000000 0.000000
		CHANNELS 6 Xposition Yposition Zposition Zrotation Xrotation Yrotation
		JOINT RightLeg
		{
			OFFSET 0.000000 0.000002 -11.840408
			CHANNELS 6 Xposition Yposition Zposition Zrotation Xrotation Yrotation
			JOINT RightFoot
			{
				OFFSET 0.000000 0.000002 -12.413343
				CHANNELS 6 Xposition Yposition Zposition Zrotation Xrotation Yrotation
				JOINT RightToeBase
				{
					OFFSET 0.000000 -4.223034 -1.829982
					CHANNELS 6 Xposition Yposition Zposition Zrotation Xrotation Yrotation
					End Site
					{
						OFFSET 0.000000 -1.126143 0.000000
					}
				}
			}
		}
	}
}
MOTION
Frames: 9
Frame Time: 0.041667
34.582241 1.402593 24.936417 206.954786 -11.369044 3.764701 0.000000 -0.000000 2.308591 -2.256701 -12.630517 -5.174110 0.000001 -0.000001 6.299945 -0.405613 19.740963 -1.010180 -0.000001 -0.000001 6.863023 10.400904 11.030708 -7.589806 -0.000000 -0.563070 4.363798 11.660957 6.572725 11.639913 1.133879 0.148838 5.541538 -0.272344 -8.356076 -17.233105 4.045992 -0.000000 0.000000 -17.533442 -3.936491 25.359092 7.933551 -0.000001 0.000009 -20.720644 -10.245837 -14.585794 7.373209 0.000001 -0.000003 -1.363997 -12.928277 4.650812 -1.118239 0.148839 5.541540 -5.880614 -5.686436 16.077604 -4.046000 0.000001 0.000002 26.378442 19.339317 -21.156277 -7.933546 -0.000001 0.000005 80.731429 44.047548 48.117450 -7.373207 -0.000005 0.000005 5.249467 4.636217 26.857485 2.815357 -0.000000 0.000002 -15.870243 8.150918 8.219802 -0.000001 0.000001 -11.840413 169.861737 160.559005 -174.864154 -0.000000 0.000002 -12.413342 7.736790 -4.285606 -11.749724 0.000003 -4.223034 -1.829982 0.000000 -0.000001 0.000000 -2.815356 0.000001 0.000001 36.572494 -73.229279 31.821650 -0.000003 -0.000002 -11.840408 3.870374 67.200483 -58.560485 -0.000001 0.000002 -12.413343 -26.131844 3.063338 -5.151556 0.000001 -4.223036 -1.829984 0.000000 -0.000002 0.000000 
34.520782 1.432281 24.920153 207.719317 -11.116734 3.498783 0.000006 -0.000001 2.308595 -2.369507 -12.767638 -5.022881 0.000002 -0.000003 6.299943 -0.474636 19.574941 -0.856113 -0.000007 -0.000000 6.863014 10.390824 10.991770 -7.509370 -0.000002 -0.563069 4.363804 11.642043 6.621964 11.551768 1.133873 0.148837 5.541532 -0.259870 -8.329604 -17.208431 4.045995 0.000001 -0.000001 -17.619081 -3.951613 25.374631 7.933551 0.000000 -0.000001 -20.740027 -10.315352 -14.628144 7.373207 -0.000001 -0.000001 -1.316019 -13.005154 4.627802 -1.118240 0.148839 5.541530 -5.981447 -5.669305 16.091249 -4.046000 -0.000001 0.000004 26.222285 19.107603 -21.073662 -7.933550 -0.000003 0.000001 81.185548 44.030241 47.674013 -7.373208 -0.000001 -0.000000 5.217201 4.724475 26.824222 2.815363 -0.000001 0.000003 -16.012798 7.904008 8.439542 0.000002 0.000001 -11.840407 169.770021 160.514705 -174.771427 0.000003 0.000001 -12.413342 7.241110 -4.253002 -11.764871 0.000000 -4.223035 -1.829982 -0.000000 -0.000002 -0.000000 -2.815355 0.000000 0.000001 34.501123 -72.804851 29.584182 -0.000001 0.000001 -11.840407 2.397902 66.313446 -56.710542 0.000005 0.000002 -12.413343 -25.745170 3.383220 -5.626693 0.000000 -4.223032 -1.829982 0.000000 0.000001 0.000003 
34.457596 1.465913 24.903419 208.512425 -10.913187 3.253997 0.000001 0.000001 2.308590 -2.484026 -12.884532 -4.879492 -0.000001 -0.000000 6.299946 -0.544518 19.437767 -0.696561 -0.000008 -0.000000 6.863022 10.331892 11.029267 -7.484867 0.000005 -0.563079 4.363804 11.585534 6.554657 11.580359 1.133877 0.148837 5.541535 -0.283609 -8.277652 -17.229466 4.045999 -0.000001 0.000003 -17.650283 -4.133655 25.415504 7.933553 0.000000 -0.000004 -20.706053 -10.292771 -14.611421 7.373207 0.000001 0.000001 -1.339901 -12.976132 4.615042 -1.118236 0.148836 5.541539 -6.053469 -5.648755 16.069475 -4.045993 -0.000000 -0.000002 26.010808 18.906039 -20.976855 -7.933550 -0.000000 0.000003 81.586063 44.008736 47.297557 -7.373207 -0.000007 0.000004 5.254549 4.796387 26.822539 2.815356 0.000001 -0.000003 -15.988511 7.732624 8.668062 0.000002 0.000001 -11.840410 169.616943 160.424888 -174.779637 0.000000 0.000001 -12.413342 6.662111 -4.220028 -11.810709 0.000000 -4.223034 -1.829982 0.000000 -0.000001 -0.000000 -2.815354 0.000000 -0.000002 32.534356 -72.331184 27.434273 0.000003 0.000003 -11.840409 0.719769 65.585088 -54.602458 0.000001 0.000002 -12.413346 -25.237042 3.756365 -6.090239 -0.000000 -4.223032 -1.829982 0.000000 -0.000001 0.000000 
34.394611 1.496687 24.882730 209.282173 -10.693895 2.959217 0.000002 0.000000 2.308590 -2.554304 -12.989007 -4.677300 0.000003 -0.000000 6.299946 -0.598418 19.276542 -0.557232 -0.000004 -0.000002 6.863015 10.283251 11.025799 -7.459336 0.000000 -0.563073 4.363800 11.541256 6.510180 11.606581 1.133877 0.148837 5.541533 -0.352789 -8.266960 -17.217645 4.045996 0.000002 -0.000003 -17.641591 -4.263997 25.398234 7.933553 0.000001 0.000002 -20.672582 -10.255096 -14.550787 7.373209 -0.000002 0.000001 -1.340065 -12.923560 4.618204 -1.118235 0.148837 5.541533 -6.145782 -5.673275 16.075726 -4.045994 -0.000001 -0.000003 25.843189 18.758384 -20.950413 -7.933545 -0.000005 -0.000002 81.935004 44.014815 46.989632 -7.373205 0.000000 0.000002 5.202395 4.850983 26.812978 2.815358 0.000000 -0.000002 -16.057966 7.526203 8.904121 -0.000003 0.000001 -11.840409 169.806371 160.361299 -174.792587 0.000001 0.000001 -12.413342 5.832859 -4.180754 -11.907065 0.000003 -4.223035 -1.829982 0.000001 -0.000000 -0.000001 -2.815358 0.000001 -0.000001 30.833561 -71.852969 25.532967 0.000000 -0.000000 -11.840407 -0.576190 64.776326 -52.749872 -0.000001 0.000003 -12.413339 -24.784702 4.043130 -6.289108 0.000001 -4.223034 -1.829984 -0.000001 0.000003 -0.000003 
34.329426 1.528905 24.864357 210.102015 -10.494817 2.732091 0.000002 -0.000000 2.308597 -2.692861 -13.107081 -4.578248 0.000000 0.000000 6.299947 -0.680673 19.181499 -0.357807 -0.000002 -0.000003 6.863017 10.262946 10.963401 -7.402283 0.000000 -0.563072 4.363801 11.522072 6.492882 11.549747 1.133878 0.148836 5.541532 -0.336363 -8.224339 -17.233221 4.046000 0.000002 0.000001 -17.786574 -4.235786 25.428238 7.933554 0.000001 0.000003 -20.682315 -10.325689 -14.651770 7.373209 -0.000002 -0.000001 -1.291580 -13.010937 4.602175 -1.118237 0.148836 5.541535 -6.202644 -5.683202 16.083410 -4.045995 -0.000001 -0.000003 25.612981 18.501649 -20.919326 -7.933553 -0.000003 -0.000001 82.403330 44.006212 46.545178 -7.373203 -0.000001 0.000006 5.143194 4.948595 26.886189 2.815359 -0.000000 0.000002 -16.148329 7.438950 9.069439 -0.000002 0.000001 -11.840410 169.626122 160.373142 -174.688003 0.000002 0.000001 -12.413341 5.300975 -4.249727 -12.060436 0.000003 -4.223034 -1.829982 -0.000000 0.000001 -0.000000 -2.815353 0.000001 0.000004 29.106749 -71.277839 23.642679 0.000006 -0.000001 -11.840413 -2.069869 64.007048 -50.763165 -0.000000 0.000003 -12.413342 -24.266018 4.320842 -6.507167 0.000000 -4.223034 -1.829980 0.000000 0.000002 -0.000004 
34.264050 1.567909 24.844971 210.968875 -10.317618 2.527643 0.000002 0.000001 2.308594 -2.834404 -13.227683 -4.389316 -0.000002 -0.000001 6.299948 -0.742491 19.102670 -0.304047 -0.000004 0.000001 6.863020 10.212587 10.923518 -7.338403 0.000003 -0.563075 4.363804 11.474549 6.450863 11.527619 1.133877 0.148839 5.541539 -0.376456 -8.216367 -17.210362 4.045994 0.000002 -0.000004 -17.842295 -4.318729 25.447099 7.933553 -0.000003 0.000003 -20.680804 -10.321232 -14.656882 7.373209 0.000000 0.000002 -1.308103 -13.007405 4.555464 -1.118235 0.148839 5.541534 -6.353719 -5.642576 16.074799 -4.045992 0.000000 0.000001 25.556379 18.358106 -20.860537 -7.933553 0.000000 0.000001 82.854771 43.802587 46.349565 -7.373207 -0.000002 0.000003 5.785927 4.630114 26.360048 2.815357 0.000001 0.000002 -16.296558 7.351918 9.251403 -0.000002 0.000003 -11.840409 169.581863 160.382349 -174.670244 -0.000000 0.000002 -12.413343 4.653424 -4.257127 -12.141672 0.000001 -4.223034 -1.829982 0.000001 -0.000002 0.000000 -2.815355 -0.000000 0.000001 27.381923 -70.671544 21.738756 -0.000002 0.000003 -11.840409 -3.130781 63.187105 -48.969140 0.000002 0.000001 -12.413345 -23.595828 4.498245 -6.942788 -0.000001 -4.223032 -1.829984 0.000001 0.000005 0.000001 
34.197598 1.598647 24.822559 211.769018 -10.104146 2.289900 0.000001 -0.000000 2.308589 -2.934758 -13.358495 -4.275041 0.000000 -0.000002 6.299946 -0.810467 19.019731 -0.113965 0.000001 -0.000002 6.863018 10.168562 10.866875 -7.334364 0.000005 -0.563074 4.363795 11.443068 6.393853 11.578865 1.133878 0.148838 5.541538 -0.413440 -8.176028 -17.228971 4.045992 -0.000000 -0.000002 -17.865547 -4.476423 25.444582 7.933554 0.000001 0.000009 -20.674293 -10.282926 -14.649523 7.373207 0.000000 0.000000 -1.336611 -12.968562 4.571879 -1.118237 0.148837 5.541531 -6.445860 -5.630251 16.063365 -4.045990 -0.000002 -0.000001 25.334239 18.023397 -20.813627 -7.933551 0.000002 0.000006 83.259234 43.815766 45.898823 -7.373207 -0.000001 0.000004 5.616990 4.805638 26.474867 2.815354 0.000001 -0.000002 -16.314100 7.203722 9.433975 0.000003 0.000003 -11.840409 169.217732 160.365342 -174.535471 0.000004 0.000002 -12.413344 4.273569 -4.290011 -12.262102 0.000003 -4.223034 -1.829982 0.000000 0.000002 -0.000001 -2.815356 0.000000 -0.000005 25.839905 -70.112636 19.971328 0.000001 0.000002 -11.840412 -4.299105 62.357284 -47.015027 0.000003 0.000004 -12.413341 -23.173065 4.786380 -7.202960 -0.000001 -4.223034 -1.829978 -0.000002 0.000002 0.000001 
34.132549 1.627581 24.802155 212.590703 -9.892516 2.061794 -0.000002 -0.000001 2.308588 -3.041671 -13.443914 -4.137884 -0.000002 -0.000000 6.299939 -0.872298 18.882790 0.019068 -0.000002 -0.000000 6.863014 10.111078 10.843522 -7.259620 0.000004 -0.563073 4.363804 11.392127 6.276493 11.554040 1.133881 0.148836 5.541533 -0.459810 -8.170499 -17.229608 4.045994 -0.000000 0.000004 -17.971737 -4.345386 25.485490 7.933549 0.000001 0.000004 -20.739912 -10.349723 -14.770781 7.373211 0.000000 0.000001 -1.276428 -13.062494 4.533386 -1.118234 0.148836 5.541530 -6.540215 -5.599477 16.095754 -4.045990 0.000000 -0.000003 25.207021 17.843268 -20.821021 -7.933549 -0.000001 0.000001 84.480786 43.252627 45.276955 -7.373208 -0.000004 0.000006 7.417095 4.055009 25.221819 2.815352 -0.000001 -0.000005 -16.487928 7.017702 9.654962 -0.000002 0.000002 -11.840407 169.116508 160.310059 -174.487960 0.000004 0.000002 -12.413342 3.799458 -4.291544 -12.406224 0.000000 -4.223034 -1.829984 0.000000 0.000003 -0.000000 -2.815358 -0.000002 -0.000004 24.560235 -69.482463 18.460980 -0.000005 0.000002 -11.840407 -5.689915 61.640060 -44.869073 0.000001 0.000002 -12.413347 -22.454886 4.989818 -7.342027 -0.000001 -4.223036 -1.829980 0.000000 -0.000004 0.000005 
34.064617 1.656295 24.778854 213.398264 -9.661779 1.819754 -0.000001 0.000002 2.308589 -3.124864 -13.581572 -3.991314 -0.000001 -0.000001 6.299949 -0.927073 18.796725 0.158649 -0.000001 0.000000 6.863019 10.066137 10.757784 -7.205828 0.000000 -0.563073 4.363805 11.352400 6.240966 11.512726 1.133877 0.148838 5.541542 -0.511900 -8.144292 -17.247397 4.045995 0.000003 -0.000003 -18.016622 -4.449271 25.511199 7.933553 0.000002 -0.000000 -20.763638 -10.335534 -14.781100 7.373209 -0.000000 0.000001 -1.328105 -13.054527 4.458078 -1.118235 0.148839 5.541535 -6.499008 -5.661788 16.043435 -4.045994 0.000000 -0.000005 24.617434 17.072171 -20.628776 -7.933547 -0.000003 0.000006 85.823280 43.069144 43.778135 -7.373212 -0.000002 0.000004 7.201221 4.451168 25.298515 2.815356 0.000002 -0.000002 -16.548831 6.840153 9.899408 -0.000003 0.000003 -11.840407 168.860813 160.264624 -174.459410 -0.000001 0.000002 -12.413342 3.444731 -4.297730 -12.517009 0.000000 -4.223034 -1.829982 -0.000001 0.000001 -0.000000 -2.815354 0.000001 -0.000001 23.532753 -68.862363 17.200020 -0.000003 0.000001 -11.840407 -6.721875 60.738652 -42.973829 0.000002 0.000003 -12.413342 -21.979834 5.339787 -7.832647 -0.000001 -4.223034 -1.829980 0.000000 0.000001 0.000005 
